<svg width="18" height="18" viewBox="0 0 18 18" fill="none" xmlns="http://www.w3.org/2000/svg">
<path d="M1 1H2.77776L3.13332 2.77778M3.13332 2.77778H16.9999L13.4443 9.88889H4.55553M3.13332 2.77778L4.55553 9.88889M4.55553 9.88889L2.51732 11.9271C1.95733 12.4871 2.35377 13.4444 3.14576 13.4444H13.4443M13.4443 13.4444C12.9729 13.4444 12.5207 13.6317 12.1873 13.9651C11.8539 14.2985 11.6666 14.7507 11.6666 15.2222C11.6666 15.6937 11.8539 16.1459 12.1873 16.4793C12.5207 16.8127 12.9729 17 13.4443 17C13.9158 17 14.368 16.8127 14.7014 16.4793C15.0348 16.1459 15.2221 15.6937 15.2221 15.2222C15.2221 14.7507 15.0348 14.2985 14.7014 13.9651C14.368 13.6317 13.9158 13.4444 13.4443 13.4444ZM6.33329 15.2222C6.33329 15.6937 6.14599 16.1459 5.8126 16.4793C5.4792 16.8127 5.02702 17 4.55553 17C4.08404 17 3.63185 16.8127 3.29846 16.4793C2.96506 16.1459 2.77776 15.6937 2.77776 15.2222C2.77776 14.7507 2.96506 14.2985 3.29846 13.9651C3.63185 13.6317 4.08404 13.4444 4.55553 13.4444C5.02702 13.4444 5.4792 13.6317 5.8126 13.9651C6.14599 14.2985 6.33329 14.7507 6.33329 15.2222Z" stroke="#111827" stroke-width="2" stroke-linecap="round" stroke-linejoin="round"/>
</svg>
